<svg viewBox="0 0 1024 1024" xmlns="http://www.w3.org/2000/svg">
  <path d="M 605,295 L 551,310 L 539,292 L 533,289 L 502,303 L 442,337 L 439,341 L 441,372 L 398,404 L 398,408 L 403,410 L 457,397 L 479,438 L 419,579 L 322,686 L 325,697 L 347,720 L 389,748 L 421,756 L 398,706 L 494,614 L 614,738 L 627,735 L 655,715 L 677,693 L 693,670 L 691,664 L 646,668 L 566,579 L 574,558 L 599,568 L 604,567 L 681,515 L 680,507 L 710,486 L 723,461 L 721,445 L 714,437 L 694,435 L 681,442 L 656,471 L 648,470 L 590,502 L 580,494 L 555,457 L 552,445 L 556,434 L 573,431 L 581,425 L 588,397 L 585,381 L 592,376 L 595,368 L 593,359 L 573,352 L 566,336 L 607,300 Z" fill="#2A9D3E" />
  <path d="M 709,490 L 705,494 L 705,495 L 703,497 L 704,498 L 704,501 L 705,502 L 705,504 L 706,505 L 706,508 L 707,509 L 707,512 L 708,513 L 708,516 L 709,517 L 709,520 L 710,521 L 710,524 L 711,525 L 711,528 L 712,529 L 712,531 L 713,532 L 713,534 L 714,535 L 714,537 L 715,538 L 715,539 L 717,541 L 721,541 L 723,539 L 723,537 L 724,536 L 723,535 L 723,531 L 722,530 L 722,528 L 721,527 L 721,523 L 720,522 L 720,520 L 719,519 L 719,516 L 718,515 L 718,512 L 717,511 L 717,509 L 716,508 L 716,506 L 715,505 L 715,502 L 714,501 L 714,498 L 713,497 L 713,494 L 712,493 L 712,491 L 711,490 Z" fill="#D02027" />
  <path d="M 613,128 L 607,126 L 604,129 L 608,145 L 603,150 L 564,176 L 521,194 L 450,211 L 403,225 L 370,242 L 336,267 L 317,287 L 320,321 L 319,372 L 326,371 L 326,369 L 380,334 L 422,314 L 463,305 L 498,303 L 530,287 L 538,287 L 544,295 L 548,296 L 568,291 L 572,288 L 575,289 L 575,287 L 581,285 L 583,286 L 615,269 L 624,260 L 633,245 L 640,262 L 640,269 L 642,270 L 643,280 L 647,288 L 646,291 L 648,292 L 647,295 L 652,307 L 652,313 L 655,317 L 655,324 L 657,324 L 657,331 L 661,340 L 661,346 L 663,347 L 685,433 L 687,435 L 693,433 L 695,430 Z" fill="#D02027" />
  <path d="M 498,304 L 496,305 L 473,306 L 472,307 L 453,309 L 452,310 L 448,310 L 447,311 L 443,311 L 442,312 L 438,312 L 434,314 L 427,315 L 413,321 L 408,322 L 390,331 L 363,347 L 319,377 L 319,391 L 318,392 L 319,437 L 320,438 L 320,447 L 321,448 L 321,454 L 322,455 L 324,469 L 325,470 L 329,470 L 346,457 L 366,444 L 399,427 L 428,417 L 432,417 L 443,414 L 448,414 L 449,413 L 464,412 L 457,399 L 454,399 L 437,404 L 433,404 L 428,406 L 424,406 L 420,408 L 416,408 L 407,411 L 400,411 L 398,410 L 396,407 L 396,404 L 403,397 L 439,372 L 440,370 L 439,369 L 437,343 L 439,338 L 441,336 L 482,312 Z" fill="#288AD1" />
  <path d="M 633,248 L 630,254 L 625,260 L 625,261 L 616,270 L 607,276 L 587,286 L 585,286 L 577,290 L 571,291 L 570,292 L 567,292 L 566,293 L 560,294 L 556,296 L 552,296 L 551,297 L 545,298 L 549,306 L 552,309 L 553,308 L 556,308 L 560,306 L 567,305 L 568,304 L 570,304 L 580,300 L 583,300 L 584,299 L 586,299 L 590,297 L 593,297 L 597,295 L 600,295 L 601,294 L 606,294 L 609,297 L 608,301 L 599,310 L 598,310 L 592,316 L 591,316 L 568,336 L 568,340 L 572,348 L 576,353 L 580,355 L 583,355 L 584,356 L 590,356 L 591,357 L 593,357 L 596,361 L 596,371 L 595,372 L 595,374 L 594,376 L 587,382 L 587,384 L 589,387 L 589,404 L 588,405 L 592,405 L 593,404 L 602,403 L 603,402 L 606,402 L 607,401 L 615,399 L 627,393 L 633,389 L 636,386 L 637,386 L 650,372 L 653,366 L 655,364 L 660,352 L 659,341 L 658,340 L 657,334 L 656,333 L 656,330 L 653,323 L 651,312 L 649,308 L 648,301 L 646,297 L 645,290 L 643,286 L 643,283 L 641,279 L 641,275 L 639,271 L 637,260 L 636,259 L 635,253 Z" fill="#288AD1" />
</svg>
